HIERARCHY
ROOT Hips
{
  OFFSET 54.1709 86.598 6.3143
  CHANNELS 6 Xposition Yposition Zposition Zrotation Xrotation Yrotation
  JOINT spine
  {
    OFFSET 0 6.84637 0.3937
    CHANNELS 3 Zrotation Xrotation Yrotation
    JOINT spine1
    {
      OFFSET 0 9.49621 0
      CHANNELS 3 Zrotation Xrotation Yrotation
      JOINT spine2
      {
        OFFSET 0 9.09909 0
        CHANNELS 3 Zrotation Xrotation Yrotation
        JOINT Neck
        {
          OFFSET 0 23.3612 1.11378
          CHANNELS 3 Zrotation Xrotation Yrotation
          JOINT Head
          {
            OFFSET 0 7.05802 0
            CHANNELS 3 Zrotation Xrotation Yrotation
            End Site
            {
              OFFSET 0 17.0844 -5.63419
            }
          }
        }
        JOINT RightShoulder
        {
          OFFSET -3.83136 9.82631 -0.533491
          CHANNELS 3 Zrotation Xrotation Yrotation
          JOINT RightArm
          {
            OFFSET 0 12.8881 0
            CHANNELS 3 Zrotation Xrotation Yrotation
            JOINT RightArmRoll
            {
              OFFSET 0 6.50617 0
              CHANNELS 3 Zrotation Xrotation Yrotation
              JOINT RightForeArm
              {
                OFFSET 0 18.9501 0
                CHANNELS 3 Zrotation Xrotation Yrotation
                JOINT RightForeArmRoll
                {
                  OFFSET 0 7.30093 0
                  CHANNELS 3 Zrotation Xrotation Yrotation
                  JOINT RightHand
                  {
                    OFFSET 0 14.6514 0
                    CHANNELS 3 Zrotation Xrotation Yrotation
                    End Site
                    {
                      OFFSET 0 0 0
                    }
                  }
                }
              }
            }
          }
        }
        JOINT LeftShoulder
        {
          OFFSET 3.83136 9.82631 -0.533491
          CHANNELS 3 Zrotation Xrotation Yrotation
          JOINT LeftArm
          {
            OFFSET 0 12.8881 0
            CHANNELS 3 Zrotation Xrotation Yrotation
            JOINT LeftArmRoll
            {
              OFFSET 0 6.50617 0
              CHANNELS 3 Zrotation Xrotation Yrotation
              JOINT LeftForeArm
              {
                OFFSET 0 18.9501 0
                CHANNELS 3 Zrotation Xrotation Yrotation
                JOINT LeftForeArmRoll
                {
                  OFFSET 0 7.30093 0
                  CHANNELS 3 Zrotation Xrotation Yrotation
                  JOINT LeftHand
                  {
                    OFFSET 0 14.6514 0
                    CHANNELS 3 Zrotation Xrotation Yrotation
                    End Site
                    {
                      OFFSET 0 0 0
                    }
                  }
                }
              }
            }
          }
        }
      }
    }
  }
  JOINT RightUpLeg
  {
    OFFSET -6.06837 -1.11278 -0.933477
    CHANNELS 3 Zrotation Xrotation Yrotation
    JOINT RightUpLegRoll
    {
      OFFSET 0 17.1796 0
      CHANNELS 3 Zrotation Xrotation Yrotation
      JOINT RightLeg
      {
        OFFSET 0 -21.2743 0
        CHANNELS 3 Zrotation Xrotation Yrotation
        JOINT RightLegRoll
        {
          OFFSET 0 21.3439 0
          CHANNELS 3 Zrotation Xrotation Yrotation
          JOINT RightFoot
          {
            OFFSET 0 17.7652 0
            CHANNELS 3 Zrotation Xrotation Yrotation
            JOINT RightToeBase
            {
              OFFSET 0 14.8508 0
              CHANNELS 3 Zrotation Xrotation Yrotation
              End Site
              {
                OFFSET 0.0062947 7.19213 -0.829005
              }
            }
          }
        }
      }
    }
  }
  JOINT LeftUpLeg
  {
    OFFSET 6.06837 -1.11278 -0.933477
    CHANNELS 3 Zrotation Xrotation Yrotation
    JOINT LeftUpLegRoll
    {
      OFFSET 0 17.1797 0
      CHANNELS 3 Zrotation Xrotation Yrotation
      JOINT LeftLeg
      {
        OFFSET 0 21.2742 0
        CHANNELS 3 Zrotation Xrotation Yrotation
        JOINT LeftLegRoll
        {
          OFFSET 0 21.5412 0
          CHANNELS 3 Zrotation Xrotation Yrotation
          JOINT LeftFoot
          {
            OFFSET 0 17.5679 0
            CHANNELS 3 Zrotation Xrotation Yrotation
            JOINT LeftToeBase
            {
              OFFSET 0 14.8508 0
              CHANNELS 3 Zrotation Xrotation Yrotation
              End Site
              {
                OFFSET -0.0282102 7.19214 -0.829004
              }
            }
          }
        }
      }
    }
  }
}
MOTION
Frames: 11
Frame Time: 0.00208333
52.0489 86.8476 8.15556 1.36206 1.78954 -1.38072 1.28643 -2.02647 0.996628 2.59544 -0.029933 1.87158 2.57387 1.61381 1.8284 -15.0021 6.39886 -1.50332 11.6463 9.35396 -5.15424 54.137 -9.90548 -6.13396 93.9492 10.3211 31.6815 2.18192e-007 -9.43447e-007 -5.67121e-006 10.0082 2.52871 -0.68543 -9.48977e-008 -1.2928e-006 -3.00632 8.02894 -4.95147 0.697681 -74.3087 -8.40692 5.53314 -93.8079 22.3109 -28.4772 4.37514e-006 2.20758e-006 8.15938e-006 -13.4945 4.47667 -0.0250374 1.49543e-005 -1.15e-005 3.00544 -8.02889 -4.95142 -0.697706 176.946 16.611 -1.7258 180 7.01568e-015 179.018 177.516 23.6995 179.74 1.80235e-007 -4.00295e-006 0.533968 -21.9832 72.1355 23.683 8.13178 25.2329 -3.48573 -179.534 11.5356 1.76831 4.54188e-006 -4.6773e-006 -1.01942 -1.30847 -21.8673 0.56682 1.02381e-006 2.82354e-007 -0.582808 25.0089 75.1485 -27.9398 -8.13541 25.2327 3.48727 
52.0517 86.8428 8.15561 1.36308 1.79329 -1.38235 1.28514 -2.02637 0.9976 2.59323 -0.0297206 1.87362 2.57161 1.61402 1.83049 -15.0072 6.38885 -1.50787 11.6477 9.34237 -5.1576 54.1432 -9.89803 -6.12883 93.9857 10.4074 31.575 2.18192e-007 -9.43447e-007 -5.67121e-006 10.0524 2.63068 -0.700118 -9.48977e-008 -1.2928e-006 -3.00632 8.02894 -4.95147 0.697681 -74.3085 -8.4026 5.53117 -93.8104 22.3918 -28.4156 4.37514e-006 2.20758e-006 8.15938e-006 -13.5189 4.52146 -0.0161326 1.49543e-005 -1.15e-005 3.00544 -8.02889 -4.95142 -0.697706 176.906 16.612 -1.65068 180 7.01568e-015 179.018 177.451 23.683 179.761 1.80235e-007 -4.00295e-006 0.529193 -22.0102 72.1205 23.6698 8.13178 25.2329 -3.48573 -179.534 11.5222 1.76358 4.54188e-006 -4.6773e-006 -1.01942 -1.31458 -21.847 0.56499 1.02381e-006 2.82354e-007 -0.582808 25.0097 75.1454 -27.9342 -8.13541 25.2327 3.48727 
52.0618 86.8639 8.13337 1.36393 1.79683 -1.38416 1.2839 -2.02629 0.998612 2.59113 -0.0295392 1.87574 2.56945 1.6142 1.83266 -15.0121 6.37944 -1.51239 11.6487 9.33024 -5.16089 54.1496 -9.89045 -6.12361 94.0217 10.4937 31.4695 2.18192e-007 -9.43447e-007 -5.67121e-006 10.0963 2.7326 -0.7148 -9.48977e-008 -1.2928e-006 -3.00632 8.02894 -4.95147 0.697681 -74.3086 -8.39816 5.52915 -93.813 22.4735 -28.3543 4.37514e-006 2.20758e-006 8.15938e-006 -13.543 4.56597 -0.00729574 1.49543e-005 -1.15e-005 3.00544 -8.02889 -4.95142 -0.697706 176.865 16.6125 -1.57295 180 7.01568e-015 179.018 177.384 23.6659 179.782 1.80235e-007 -4.00295e-006 0.524238 -22.0383 72.1051 23.6561 8.13178 25.2329 -3.48573 -179.534 11.5084 1.75829 4.54188e-006 -4.6773e-006 -1.01942 -1.32105 -21.8265 0.563029 1.02381e-006 2.82354e-007 -0.582808 25.0111 75.1425 -27.9289 -8.13541 25.2327 3.48727 
52.058 86.8804 8.13114 1.36466 1.80021 -1.38611 1.28269 -2.02621 0.99965 2.58912 -0.0293794 1.8779 2.56737 1.61436 1.83488 -15.0168 6.37045 -1.51688 11.6494 9.31773 -5.16412 54.1563 -9.88277 -6.11832 94.0577 10.5799 31.3648 2.18192e-007 -9.43447e-007 -5.67121e-006 10.1402 2.83451 -0.729478 -9.48977e-008 -1.2928e-006 -3.00632 8.02894 -4.95147 0.697681 -74.3088 -8.39362 5.52709 -93.8159 22.5556 -28.2932 4.37514e-006 2.20758e-006 8.15938e-006 -13.567 4.61029 0.00149382 1.49543e-005 -1.15e-005 3.00544 -8.02889 -4.95142 -0.697706 176.822 16.6127 -1.49338 180 7.01568e-015 179.018 177.316 23.6484 179.805 1.80235e-007 -4.00295e-006 0.519156 -22.0671 72.0894 23.6423 8.13178 25.2329 -3.48573 -179.534 11.4942 1.75263 4.54188e-006 -4.6773e-006 -1.01942 -1.32777 -21.806 0.560976 1.02381e-006 2.82354e-007 -0.582808 25.0129 75.1397 -27.9237 -8.13541 25.2327 3.48727 
52.0578 86.8785 8.12906 1.36532 1.80351 -1.38812 1.2815 -2.02614 1.0007 2.58715 -0.0292321 1.88009 2.56532 1.61451 1.83713 -15.0215 6.36171 -1.52136 11.65 9.30501 -5.16734 54.1631 -9.87503 -6.11299 94.0937 10.6662 31.2606 2.18192e-007 -9.43447e-007 -5.67121e-006 10.184 2.93639 -0.744156 -9.48977e-008 -1.2928e-006 -3.00632 8.02894 -4.95147 0.697681 -74.3092 -8.38903 5.525 -93.8188 22.638 -28.2323 4.37514e-006 2.20758e-006 8.15938e-006 -13.5908 4.65451 0.0102568 1.49543e-005 -1.15e-005 3.00544 -8.02889 -4.95142 -0.697706 176.779 16.6126 -1.41277 180 7.01568e-015 179.018 177.246 23.6306 179.827 1.80235e-007 -4.00295e-006 0.514003 -22.0963 72.0735 23.6283 8.13178 25.2329 -3.48573 -179.534 11.4798 1.74674 4.54188e-006 -4.6773e-006 -1.01942 -1.33465 -21.7853 0.558871 1.02381e-006 2.82354e-007 -0.582808 25.015 75.137 -27.9186 -8.13541 25.2327 3.48727 
52.0579 86.866 8.12212 1.36596 1.80679 -1.39016 1.28031 -2.02608 1.00176 2.58519 -0.0290878 1.88229 2.56329 1.61466 1.83938 -15.0261 6.35302 -1.52583 11.6506 9.29223 -5.17054 54.1699 -9.86728 -6.10766 94.1299 10.7527 31.1564 2.18192e-007 -9.43447e-007 -5.67121e-006 10.2278 3.03828 -0.758838 -9.48977e-008 -1.2928e-006 -3.00632 8.02894 -4.95147 0.697681 -74.3096 -8.38443 5.52292 -93.822 22.7205 -28.1713 4.37514e-006 2.20758e-006 8.15938e-006 -13.6147 4.69871 0.0190141 1.49543e-005 -1.15e-005 3.00544 -8.02889 -4.95142 -0.697706 176.736 16.6125 -1.3319 180 7.01568e-015 179.019 177.177 23.6127 179.85 1.80235e-007 -4.00295e-006 0.508831 -22.1257 72.0575 23.6142 8.13178 25.2329 -3.48573 -179.534 11.4654 1.7408 4.54188e-006 -4.6773e-006 -1.01942 -1.34155 -21.7647 0.556754 1.02381e-006 2.82354e-007 -0.582808 25.0171 75.1342 -27.9136 -8.13541 25.2327 3.48727 
52.0504 86.8679 8.11857 1.36663 1.8101 -1.39216 1.27912 -2.02601 1.00281 2.58321 -0.0289374 1.88448 2.56124 1.61481 1.84163 -15.0308 6.34422 -1.53031 11.6513 9.27956 -5.17376 54.1766 -9.85956 -6.10234 94.1665 10.8393 31.0521 2.18192e-007 -9.43447e-007 -5.67121e-006 10.2718 3.14016 -0.773528 -9.48977e-008 -1.2928e-006 -3.00632 8.02894 -4.95147 0.697681 -74.3099 -8.37985 5.52084 -93.8253 22.8029 -28.1103 4.37514e-006 2.20758e-006 8.15938e-006 -13.6386 4.74295 0.0277862 1.49543e-005 -1.15e-005 3.00544 -8.02889 -4.95142 -0.697706 176.693 16.6124 -1.25155 180 7.01568e-015 179.019 177.108 23.5949 179.872 1.80235e-007 -4.00295e-006 0.503696 -22.1549 72.0416 23.6003 8.13178 25.2329 -3.48573 -179.533 11.451 1.73497 4.54188e-006 -4.6773e-006 -1.01942 -1.34838 -21.7441 0.554663 1.02381e-006 2.82354e-007 -0.582808 25.019 75.1314 -27.9084 -8.13541 25.2327 3.48727 
52.0507 86.8468 8.10979 1.3674 1.81353 -1.39406 1.2779 -2.02593 1.00384 2.58117 -0.0287714 1.88663 2.55913 1.61498 1.84383 -15.0356 6.33511 -1.53481 11.6521 9.26716 -5.17701 54.1833 -9.85191 -6.09707 94.2038 10.9261 30.9472 2.18192e-007 -9.43447e-007 -5.67121e-006 10.3159 3.24207 -0.788228 -9.48976e-008 -1.2928e-006 -3.00632 8.02894 -4.95147 0.697681 -74.3101 -8.37534 5.51879 -93.8288 22.8851 -28.0491 4.37514e-006 2.20758e-006 8.15938e-006 -13.6627 4.78733 0.0365941 1.49543e-005 -1.15e-005 3.00544 -8.02889 -4.95142 -0.697706 176.651 16.6125 -1.1725 180 7.01568e-015 179.019 177.04 23.5775 179.895 1.80235e-007 -4.00295e-006 0.49865 -22.1836 72.0259 23.5866 8.13178 25.2329 -3.48573 -179.533 11.4369 1.72941 4.54188e-006 -4.6773e-006 -1.01942 -1.35503 -21.7236 0.55264 1.02381e-006 2.82354e-007 -0.582808 25.0207 75.1286 -27.9032 -8.13541 25.2327 3.48727 
52.0421 86.8469 8.11973 1.3683 1.81713 -1.39582 1.27664 -2.02584 1.00484 2.57904 -0.0285807 1.88872 2.55695 1.61517 1.84598 -15.0406 6.32552 -1.53933 11.6532 9.25519 -5.18032 54.1896 -9.84436 -6.09188 94.2419 11.0132 30.8416 2.18192e-007 -9.43447e-007 -5.67121e-006 10.3602 3.344 -0.802944 -9.48977e-008 -1.2928e-006 -3.00632 8.02894 -4.95147 0.697681 -74.3101 -8.37094 5.51678 -93.8324 22.9669 -27.9876 4.37514e-006 2.20758e-006 8.15938e-006 -13.687 4.83192 0.0454584 1.49543e-005 -1.15e-005 3.00544 -8.02889 -4.95142 -0.697706 176.609 16.613 -1.09555 180 7.01568e-015 179.019 176.974 23.5606 179.916 1.80235e-007 -4.00295e-006 0.493749 -22.2115 72.0106 23.5733 8.13178 25.2329 -3.48573 -179.533 11.4232 1.7243 4.54188e-006 -4.6773e-006 -1.01942 -1.36138 -21.7032 0.550722 1.02381e-006 2.82354e-007 -0.582808 25.0219 75.1256 -27.8978 -8.13541 25.2327 3.48727 
52.0447 86.8496 8.11476 1.36939 1.82097 -1.39737 1.27534 -2.02573 1.0058 2.57679 -0.0283559 1.89073 2.55465 1.61539 1.84805 -15.0458 6.31527 -1.5439 11.6546 9.24382 -5.18371 54.1956 -9.83697 -6.08679 94.281 11.1007 30.7348 2.18192e-007 -9.43447e-007 -5.67121e-006 10.4049 3.44597 -0.817679 -9.48977e-008 -1.2928e-006 -3.00632 8.02894 -4.95147 0.697681 -74.3098 -8.36668 5.51483 -93.8363 23.048 -27.9259 4.37514e-006 2.20758e-006 8.15938e-006 -13.7116 4.87681 0.0544 1.49543e-005 -1.15e-005 3.00544 -8.02889 -4.95142 -0.697706 176.57 16.614 -1.02148 180 7.01568e-015 179.019 176.91 23.5443 179.937 1.80235e-007 -4.00295e-006 0.489046 -22.2383 71.9959 23.5604 8.13178 25.2329 -3.48573 -179.534 11.4101 1.71979 4.54188e-006 -4.6773e-006 -1.01942 -1.36733 -21.6829 0.54895 1.02381e-006 2.82354e-007 -0.582808 25.0225 75.1225 -27.8922 -8.13541 25.2327 3.48727 
52.0372 86.8417 8.11547 1.37073 1.82512 -1.39867 1.27397 -2.0256 1.0067 2.57437 -0.0280877 1.89265 2.5522 1.61566 1.85002 -15.0513 6.30417 -1.54853 11.6566 9.2332 -5.18719 54.2012 -9.82977 -6.08183 94.3213 11.1885 30.6265 2.18192e-007 -9.43447e-007 -5.67121e-006 10.45 3.54799 -0.832436 -9.48977e-008 -1.2928e-006 -3.00632 8.02894 -4.95147 0.697681 -74.3091 -8.3626 5.51296 -93.8403 23.1283 -27.8637 4.37514e-006 2.20758e-006 8.15938e-006 -13.7366 4.92207 0.0634397 1.49543e-005 -1.15e-005 3.00544 -8.02889 -4.95142 -0.697706 176.532 16.6156 -0.951072 180 7.01568e-015 179.019 176.85 23.5291 179.956 1.80235e-007 -4.00295e-006 0.484594 -22.2638 71.9817 23.548 8.13178 25.2329 -3.48573 -179.534 11.3978 1.71606 4.54188e-006 -4.6773e-006 -1.01942 -1.37276 -21.6628 0.547363 1.02381e-006 2.82354e-007 -0.582808 25.0223 75.1193 -27.8863 -8.13541 25.2327 3.48727 
